<?xml version="1.0" ?><!DOCTYPE svg  PUBLIC '-//W3C//DTD SVG 1.1//EN'  'http://www.w3.org/Graphics/SVG/1.1/DTD/svg11.dtd'><svg enable-background="new 0 0 512 512" height="512px" id="Calque_1" version="1.1" viewBox="0 0 512 512" width="512px" xml:space="preserve" xmlns="http://www.w3.org/2000/svg" xmlns:xlink="http://www.w3.org/1999/xlink"><g><path d="M378.791,42.453H132.208L8.917,256l123.291,213.548h246.583L502.083,256L378.791,42.453z M361.471,439.548   H149.529L43.558,256L149.529,72.453h211.942L467.442,256L361.471,439.548z" fill="#52C9F4"/><polygon fill="#0B2B33" points="361.699,72.058 149.301,72.058 43.102,256 149.301,439.942 361.699,439.942 467.898,256  "/><g><path d="M166.94,280.91v62.505h-36.552v-177.4h69.206c13.321,0,25.039,2.437,35.151,7.31    c10.113,4.874,17.89,11.8,23.332,20.774c5.441,8.977,8.164,19.19,8.164,30.643c0,17.383-5.951,31.09-17.85,41.122    c-11.9,10.033-28.37,15.047-49.406,15.047H166.94z M166.94,251.303h32.653c9.666,0,17.037-2.273,22.114-6.823    c5.076-4.548,7.615-11.045,7.615-19.495c0-8.69-2.559-15.717-7.676-21.078c-5.117-5.361-12.184-8.122-21.2-8.286H166.94V251.303z" fill="#4FC9F5"/><path d="M360.424,306.984c0-4.305-2.132-7.695-6.396-10.174c-4.265-2.477-11.108-4.69-20.53-6.64    c-31.354-6.58-47.03-19.9-47.03-39.964c0-11.697,4.853-21.463,14.56-29.303c9.706-7.838,22.398-11.758,38.075-11.758    c16.732,0,30.114,3.941,40.147,11.819c10.03,7.879,15.047,18.114,15.047,30.704h-35.212c0-5.036-1.626-9.199-4.874-12.489    c-3.249-3.29-8.327-4.935-15.229-4.935c-5.931,0-10.521,1.34-13.769,4.021c-3.249,2.681-4.873,6.092-4.873,10.235    c0,3.899,1.847,7.048,5.543,9.442c3.695,2.397,9.931,4.469,18.703,6.214c8.772,1.748,16.163,3.717,22.175,5.909    c18.6,6.823,27.901,18.642,27.901,35.456c0,12.022-5.159,21.749-15.474,29.181c-10.316,7.433-23.637,11.148-39.964,11.148    c-11.047,0-20.855-1.97-29.425-5.909c-8.57-3.938-15.291-9.34-20.164-16.205c-4.874-6.862-7.311-14.274-7.311-22.235h33.385    c0.323,6.256,2.638,11.047,6.944,14.377c4.305,3.332,10.071,4.995,17.302,4.995c6.741,0,11.838-1.279,15.291-3.838    C358.697,314.478,360.424,311.127,360.424,306.984z" fill="#4FC9F5"/></g></g></svg>