<?xml version="1.0" ?><!DOCTYPE svg  PUBLIC '-//W3C//DTD SVG 1.1//EN'  'http://www.w3.org/Graphics/SVG/1.1/DTD/svg11.dtd'><svg height="512px" style="enable-background:new 0 0 512 512;" version="1.1" viewBox="0 0 512 512" width="512px" xml:space="preserve" xmlns="http://www.w3.org/2000/svg" xmlns:xlink="http://www.w3.org/1999/xlink"><g id="形状_1_5_" style="enable-background:new    ;"><g id="形状_1"><g><rect height="400.047" style="fill-rule:evenodd;clip-rule:evenodd;fill:#FFE100;" width="400.041" x="55.979" y="55.977"/></g></g></g><g id="形状_1_4_" style="enable-background:new    ;"><g id="形状_1_1_"><g><path d="M55.979,413.096v31.383     c15.03-4.134,30.051-8.417,45.054-12.862c88.762-26.249,174.872-57.165,258.046-92.369     c-88.959,15.691-178.009,36.557-266.807,62.817C80.141,405.654,68.037,409.345,55.979,413.096z M55.982,373.835v26.388     c27.015-7.771,54.01-16.063,80.979-24.82c85.099-27.697,167.637-59.453,247.368-94.983     c-85.382,18.152-170.8,40.978-255.946,68.657C104.043,357.008,79.899,365.251,55.982,373.835z M55.979,338.972v21.548     c38.441-11.701,76.849-24.383,115.146-38.028c81.781-29.151,160.948-62.007,237.391-98.25     c-82.116,20.276-164.233,44.925-246.014,74.095C126.497,311.167,90.986,324.707,55.979,338.972z M55.982,308.729v15.802     c49.301-15.895,98.543-33.401,147.617-52.517c78.602-30.665,154.686-64.655,228.008-101.66     C352.59,192.794,273.59,219.27,194.989,249.91C147.718,268.326,101.38,287.966,55.982,308.729z M55.982,282.904v9.323     c59.705-20.539,119.289-43.406,178.625-68.672c75.642-32.165,148.781-67.325,219.266-105.186     c-76.135,24.593-152.179,52.914-227.792,85.11C167.875,228.237,111.162,254.759,55.982,282.904z M256.146,158.678     c-68.932,31.972-135.698,66.272-200.164,102.646v2.234c69.74-25.747,139.347-54.641,208.561-86.72     c65.845-30.535,129.706-63.197,191.478-97.789v-3.873C389.182,100.131,322.484,127.941,256.146,158.678z M433.814,55.977H409.94     c-41.714,18.665-83.321,38.453-124.79,59.36c-70.274,35.438-138.213,73.149-203.636,112.876     c70.842-28.988,141.542-61.185,211.855-96.625C341.29,107.426,388.111,82.202,433.814,55.977z M377.509,55.977h-32.447     c-10.589,5.645-21.142,11.34-31.69,17.142c-67.822,37.17-133.356,76.263-196.503,117.043     c68.36-31.269,136.58-65.474,204.402-102.62C340.192,77.187,358.939,66.646,377.509,55.977z M300.285,55.977     c-50.833,31.202-100.281,63.362-148.299,96.372c58.87-29.968,117.677-62.104,176.185-96.372H300.285z M269.48,55.977     c-27.882,19.289-55.322,38.8-82.287,58.55c33.32-18.855,66.625-38.356,99.85-58.55H269.48z" style="fill-rule:evenodd;clip-rule:evenodd;fill:#FFFFFF;"/></g></g></g><g id="形状_1_3_" style="enable-background:new    ;"><g id="形状_1_2_"><g><path d="M180.029,369.941l-15.936,71.474h26.141l15.948-71.474     H180.029z M196.205,364.462c11.872,0,16.466-7.598,16.466-13.305c0-3.847-3.125-10.469-14.847-10.469     c-10.783,0-16.46,7.19-16.46,13.579C181.363,356.535,181.899,364.462,196.205,364.462z M146.843,344.086l-11.132,49.521     l-18.396-49.557H90.681l-21.727,97.365h26.788c3.057-15.589,7.13-32.058,11.118-48.897l18.769,48.897h25.513l21.984-97.329     H146.843z M290.869,369.899h-29.771l-21.503,25.962l11.614-51.775h-26.635l-21.586,97.329h25.95l8.704-37.005l10.953,37.005     h26.57l-11.011-39.057L290.869,369.899z M432.835,368.989c-11.181-3.349-25.041,2.185-31.866,11.66     c0.658-2.938,1.358-6.354,2.166-10.289h-26.525l-15.518,71.055h26.405l8.794-40.301c1.627-7.406,7.592-10.583,12.873-9.207     c2.273,0.616,5.42,2.333,4.373,8.5l-8.955,41.008h26.088l11.952-54.718C445.159,374.643,435.264,369.701,432.835,368.989z      M327.577,366.914c-40.277,0-46.134,31.395-47.267,37.113c-2.962,14.482,0.305,33.284,19.226,38.262     c12.461,3.29,31.987,2.937,44.524-7.328c11.465-9.368,17.143-25.209,16.948-40.11     C360.817,380.518,348.677,366.914,327.577,366.914z M330.736,393.756c-1.37,8.931-4.469,20.285-5.603,23.887l-0.036,0.125     c-1.262,3.967-4.985,6.264-9.37,6.264c-4.431,0-7.095-2.781-6.733-6.353c0.673-5.989,4.444-21.135,5.539-24.139     c1.894-5.204,7.039-6.358,9.371-6.382C329.666,387.122,331.254,390.531,330.736,393.756z" style="fill-rule:evenodd;clip-rule:evenodd;fill:#0D0D0D;"/></g></g></g></svg>