<?xml version="1.0" ?><svg viewBox="0 0 60 60" xmlns="http://www.w3.org/2000/svg"><defs><style>.a{fill:#474c5a;}.b{fill:#454954;}.c{fill:#393d4b;}.d{fill:#5c6373;}.e{fill:#f6f6f9;}.f{fill:#ff4867;}.g{fill:#f0352d;}.h{fill:#454952;stroke:#3d414b;}.h,.l,.n,.o,.p{stroke-miterlimit:10;}.i{fill:#ff4866;}.j{fill:#3f3f3f;}.k{fill:#3d3d3d;}.l,.n,.o,.p{fill:none;}.l{stroke:#48494d;stroke-width:0.75px;}.m{fill:#393d49;}.n{stroke:#383c49;}.n,.o,.p{stroke-width:0.5px;}.o{stroke:#363a44;}.p{stroke:#3d3d3d;}.q{fill:#2e5181;}.r{fill:#56759d;}.s{fill:#373c46;}.t{fill:#d6d6d8;}.u,.w{fill:#7c9ab7;}.v,.x{fill:#86a3bf;}.w{opacity:0.75;}.x{opacity:0.12;}</style></defs><title/><path class="a" d="M60,30a29.81272,29.81272,0,0,1-2.09,11H44.81a16.10171,16.10171,0,0,0,.08974-3.749c0-.56.32024-1.111.26024-1.651A14.80356,14.80356,0,0,1,43.54,41H16.46a14.80356,14.80356,0,0,1-1.62-5.4,7.16446,7.16446,0,0,0,.26935,1.69276A16.74223,16.74223,0,0,1,15.19,41H2.09a29.95446,29.95446,0,0,1-1-19H58.91A29.769,29.769,0,0,1,60,30Z"/><path class="b" d="M45.25,37.25A15.97448,15.97448,0,0,1,44.81,41H43.54a14.80356,14.80356,0,0,0,1.62-5.4A14.93339,14.93339,0,0,1,45.25,37.25Z"/><path class="c" d="M49,33.25995a3.5,3.5,0,1,1-6.54-1.74l.91-5.27a2.25,2.25,0,0,1,4.5,0l.32089,4.09526a2.59686,2.59686,0,0,0,.322,1.13464A3.46021,3.46021,0,0,1,49,33.25995Z"/><circle class="d" cx="45.61648" cy="26.25311" r="1.5"/><circle class="d" cx="45.50189" cy="33.26353" r="2.5"/><path class="e" d="M58.91,22H1.09A29.8775,29.8775,0,0,1,10.75,7h38.5A29.8775,29.8775,0,0,1,58.91,22Z"/><path class="f" d="M49.25,7H10.75a29.96875,29.96875,0,0,1,38.5,0Z"/><path class="e" d="M30,53H10.75A29.81792,29.81792,0,0,1,2.09,41h13.1A15.34806,15.34806,0,0,0,30,53Z"/><path class="e" d="M16.46,41H43.54a15.236,15.236,0,0,1-27.08,0Z"/><path class="e" d="M57.91,41a29.81792,29.81792,0,0,1-8.66,12H30A15.34806,15.34806,0,0,0,44.81,41Z"/><path class="f" d="M49.25,53a29.96875,29.96875,0,0,1-38.5,0Z"/><circle class="g" cx="30" cy="13.5" r="3.5"/><circle class="h" cx="13.95826" cy="33" r="2.25"/><circle class="i" cx="17.5" cy="25.5" r="1.5"/><circle class="j" cx="30" cy="34" r="15"/><path class="k" d="M39.4,22A15.25,15.25,0,0,0,14.75,34a14.16827,14.16827,0,0,0,.09,1.6A14.80356,14.80356,0,0,0,16.46,41a15.236,15.236,0,0,0,27.08,0,14.80356,14.80356,0,0,0,1.62-5.4,14.16827,14.16827,0,0,0,.09-1.6A15.21617,15.21617,0,0,0,39.4,22Zm5.35,12a14.75,14.75,0,0,1-29.5,0c0-.29.01-.57.03-.86A14.71337,14.71337,0,0,1,21.45,22a14.66633,14.66633,0,0,1,17.1,0,14.71337,14.71337,0,0,1,6.17,11.14C44.74,33.43,44.75,33.71,44.75,34Z"/><circle class="l" cx="30" cy="34" r="12"/><circle class="l" cx="30" cy="34" r="8.5"/><path class="m" d="M30,22.5A11.5,11.5,0,1,0,41.5,34,11.50162,11.50162,0,0,0,30,22.5ZM30,43a9,9,0,1,1,9-9A9.00076,9.00076,0,0,1,30,43Z"/><circle class="n" cx="30" cy="34" r="9"/><circle class="o" cx="30" cy="34" r="9"/><circle class="o" cx="30" cy="34" r="11.5"/><circle class="p" cx="30" cy="34" r="12.5"/><path class="q" d="M37.5,34a7.5,7.5,0,1,1-13.75-4.14,7.59712,7.59712,0,0,0,2.75.52,7.44177,7.44177,0,0,0,6.22-3.36A7.47707,7.47707,0,0,1,37.5,34Z"/><path class="r" d="M30,28a6,6,0,1,0,6,6A6.00476,6.00476,0,0,0,30,28Zm1.72,10.26a2.25583,2.25583,0,0,1-2.14-1.55,2.27987,2.27987,0,0,1-.11-.7,2.25,2.25,0,1,1,2.25,2.25Z"/><path class="q" d="M32.75,34v.01a2.2494,2.2494,0,0,0-3.28,2,2.27987,2.27987,0,0,0,.11.7A2.74641,2.74641,0,1,1,32.75,34Z"/><path class="a" d="M51.709,9.33331H50.08331v8.33331h7.26617A29.89515,29.89515,0,0,0,51.709,9.33331Z"/><path class="s" d="M54.04871,12.08331h-.52789a1,1,0,0,0-1,1v.83331a1,1,0,0,0,1,1h2.39A29.88154,29.88154,0,0,0,54.04871,12.08331Z"/><path class="s" d="M51.68909,9.3125H50.08331v1h2.53632C52.32007,9.96906,52.00378,9.64191,51.68909,9.3125Z"/><path class="s" d="M56.60455,16.16663H50.08331v1.5h7.26617C57.11938,17.15619,56.86206,16.66125,56.60455,16.16663Z"/><path class="t" d="M44.81,41A15.34806,15.34806,0,0,1,30,53,15.34806,15.34806,0,0,1,15.19,41h1.27a15.236,15.236,0,0,0,27.08,0Z"/><path class="b" d="M16.46,41H15.19a15.97448,15.97448,0,0,1-.44-3.75,14.93339,14.93339,0,0,1,.09-1.65A14.80356,14.80356,0,0,0,16.46,41Z"/><path class="u" d="M32.75,34.01A2.74632,2.74632,0,0,1,30,36.75a1.929,1.929,0,0,1-.42-.04,2.27987,2.27987,0,0,1-.11-.7,2.2494,2.2494,0,0,1,3.28-2Z"/><path class="v" d="M33.97,36.01a2.25093,2.25093,0,0,1-4.39.7,1.929,1.929,0,0,0,.42.04,2.74632,2.74632,0,0,0,2.75-2.74A2.24724,2.24724,0,0,1,33.97,36.01Z"/><path class="w" d="M32.72,27.02a7.44177,7.44177,0,0,1-6.22,3.36,7.59712,7.59712,0,0,1-2.75-.52A7.47076,7.47076,0,0,1,30,26.5,7.23637,7.23637,0,0,1,32.72,27.02Z"/><path class="x" d="M32.44,29.91355a10.95009,10.95009,0,0,1-6.81,10.14,7.49315,7.49315,0,0,1,4.37-13.58,7.15313,7.15313,0,0,1,1.97.27,7.03788,7.03788,0,0,1,.24005.93A10.98284,10.98284,0,0,1,32.44,29.91355Z"/></svg>