<?xml version="1.0" ?><!DOCTYPE svg  PUBLIC '-//W3C//DTD SVG 1.1//EN'  'http://www.w3.org/Graphics/SVG/1.1/DTD/svg11.dtd'><svg height="512px" style="shape-rendering:geometricPrecision; text-rendering:geometricPrecision; image-rendering:optimizeQuality; fill-rule:evenodd; clip-rule:evenodd" version="1.1" viewBox="0 0 512 512" width="512px" xml:space="preserve" xmlns="http://www.w3.org/2000/svg" xmlns:xlink="http://www.w3.org/1999/xlink"><defs><style type="text/css">
   <![CDATA[
    .fil9 {fill:#FEFEFE}
    .fil5 {fill:#52A9D4}
    .fil8 {fill:#59B7E6}
    .fil3 {fill:#67A4C2}
    .fil7 {fill:#70C3ED}
    .fil4 {fill:#8DC0D9}
    .fil0 {fill:#0D6A97}
    .fil6 {fill:#158AC4}
    .fil1 {fill:#1E7CA9}
    .fil2 {fill:#1F5D86}
   ]]>
  </style></defs><g id="Layer_x0020_1"><g id="_564366016"><path class="fil0" d="M324 436c95,-63 143,-95 143,-95 -94,-51 -141,-76 -141,-76 -1,114 -2,171 -2,171z"/><path class="fil1" d="M326 265c-95,63 -143,95 -143,95 94,51 141,76 141,76 1,-114 2,-171 2,-171z"/><path class="fil2" d="M466 341c-95,63 -143,95 -143,95 94,51 141,76 141,76 1,-114 2,-171 2,-171z"/><path class="fil3" d="M183 360c95,-63 143,-95 143,-95 -94,-51 -141,-76 -141,-76 -1,114 -2,171 -2,171z"/><path class="fil4" d="M185 189c-95,63 -143,95 -143,95 94,51 141,76 141,76 1,-114 2,-171 2,-171z"/><path class="fil5" d="M328 94c-95,63 -143,95 -143,95 94,51 141,76 141,76 1,-114 2,-171 2,-171z"/><path class="fil6" d="M468 170c-95,63 -143,95 -143,95 94,51 141,76 141,76 1,-114 2,-171 2,-171z"/><path class="fil7" d="M470 0c-95,63 -143,95 -143,95 94,51 141,76 141,76 1,-114 2,-171 2,-171z"/><path class="fil8" d="M326 266c95,-63 143,-95 143,-95 -94,-51 -141,-76 -141,-76 -1,114 -2,171 -2,171z"/><path class="fil9" d="M379 274c25,0 41,-19 41,-44 0,-25 -20,-45 -45,-45 -23,0 -41,17 -44,39l-1 0c-3,-22 -22,-39 -45,-39 -25,0 -41,22 -41,47 0,25 17,42 41,42l0 0 0 0 0 21 -52 -21 0 63 52 -11 0 21 83 0 -31 -74 41 0c0,0 0,0 0,0zm-94 -31c-7,0 -13,-6 -13,-13 0,-7 6,-13 13,-13 7,0 13,6 13,13 0,7 -6,13 -13,13zm79 -13c0,-7 6,-13 13,-13 7,0 13,6 13,13 0,7 -6,13 -13,13 -7,0 -13,-6 -13,-13z"/></g></g></svg>