<?xml version="1.0" ?><svg data-name="Layer 1" id="Layer_1" viewBox="0 0 70 70" xmlns="http://www.w3.org/2000/svg"><defs><style>.cls-1{fill:#ed3434;}.cls-2{fill:#494b4d;}.cls-3{fill:#fff;}</style></defs><title/><rect class="cls-1" height="48" width="47.7" x="11.65" y="11"/><path class="cls-2" d="M64.62,12.22H5a1,1,0,1,1,0-2H64.62a1,1,0,0,1,0,2Z"/><path class="cls-2" d="M65,59.22H5.38a1,1,0,1,1,0-2H65a1,1,0,0,1,0,2Z"/><path class="cls-2" d="M12,66a1,1,0,0,1-1-1V5a1,1,0,0,1,2,0V65A1,1,0,0,1,12,66Z"/><path class="cls-2" d="M58.66,66a1,1,0,0,1-1-1V5a1,1,0,0,1,2,0V65A1,1,0,0,1,58.66,66Z"/><path class="cls-3" d="M41,27.22H28.62a4.4,4.4,0,0,0-4.4,4.4v6.2a4.4,4.4,0,0,0,4.4,4.4H41a4.4,4.4,0,0,0,4.4-4.4v-6.2a4.4,4.4,0,0,0-4.4-4.4Z"/><path class="cls-1" d="M38,35l-5.8,2.76a.23.23,0,0,1-.33-.21v-5.7a.23.23,0,0,1,.34-.21L38,34.6A.23.23,0,0,1,38,35Z"/></svg>